<?xml version="1.0" standalone="no"?>
<!DOCTYPE svg PUBLIC "-//W3C//DTD SVG 20010904//EN"
 "http://www.w3.org/TR/2001/REC-SVG-20010904/DTD/svg10.dtd">
<svg version="1.0" xmlns="http://www.w3.org/2000/svg"
 width="266.000000pt" height="252.000000pt" viewBox="0 0 266.000000 252.000000"
 preserveAspectRatio="xMidYMid meet">

<g transform="translate(0.000000,252.000000) scale(0.100000,-0.100000)"
fill="#000000" stroke="none">
<path d="M1244 2311 c-132 -21 -227 -72 -330 -175 -121 -122 -174 -246 -174
-412 0 -165 66 -320 182 -431 114 -108 221 -153 378 -160 185 -9 324 43 450
167 74 73 111 130 149 229 25 65 25 72 29 384 2 174 0 317 -3 317 -12 0 -68
-41 -107 -78 l-37 -35 -57 51 c-61 55 -170 113 -245 131 -67 15 -176 21 -235
12z m193 -313 c78 -29 154 -104 178 -177 40 -121 -1 -257 -100 -333 -62 -47
-117 -62 -209 -56 -161 10 -266 128 -266 297 0 86 30 151 98 212 86 77 191 98
299 57z"/>
<path d="M202 788 c-9 -9 -12 -87 -12 -288 0 -256 1 -278 18 -293 24 -22 45
-21 65 1 15 16 17 51 17 286 0 165 -4 275 -10 287 -12 22 -59 26 -78 7z"/>
<path d="M411 782 c-6 -11 -11 -27 -11 -35 0 -22 34 -47 66 -47 65 -1 150 -62
174 -125 20 -54 14 -131 -14 -180 -32 -53 -80 -84 -154 -99 -49 -9 -58 -15
-67 -40 -8 -24 -6 -31 15 -48 20 -16 33 -18 70 -13 103 14 199 87 243 184 31
67 30 178 -3 245 -48 101 -140 165 -246 174 -55 4 -63 2 -73 -16z"/>
<path d="M1036 784 c-22 -22 -20 -50 6 -68 19 -14 64 -16 286 -16 162 0 271 4
283 10 22 12 26 59 7 78 -9 9 -87 12 -289 12 -239 0 -280 -2 -293 -16z"/>
<path d="M2034 748 c-55 -37 -108 -110 -125 -171 -15 -57 -6 -156 20 -210 27
-56 85 -115 136 -138 34 -15 43 -16 60 -5 12 8 20 25 20 42 0 22 -9 34 -43 57
-86 58 -121 154 -88 241 15 40 43 70 114 128 26 21 28 50 6 72 -23 24 -46 20
-100 -16z"/>
<path d="M2278 769 c-11 -6 -18 -22 -18 -39 0 -24 8 -35 38 -54 143 -90 148
-261 10 -353 -51 -34 -62 -72 -27 -97 19 -13 26 -13 58 0 56 22 137 114 156
176 40 136 -9 277 -123 349 -49 31 -67 34 -94 18z"/>
<path d="M1292 578 c-8 -8 -12 -64 -12 -184 0 -144 3 -175 16 -188 19 -20 34
-20 62 0 21 15 22 21 22 184 0 140 -3 171 -16 184 -18 19 -55 21 -72 4z"/>
</g>
</svg>
